PathFileType	4	(X/Y/Z)	C:/Users/beibeiliu/ov580/test_trc/User2\sequence.15_training_dense_left.trc
DataRate	CameraRate	NumFrames	NumMarkers	Units	OrigDataRate	OrigDataStartFrame	OrigNumFrames
120	120	22	19	mm	120	69	273
Frame#	Time	ThumbCMC			ThumbMCP			ThumbIP			ThumbTip			IndexMCP			IndexPIP			IndexTip			MiddleMCP			MiddlePIP			MiddleTip			RingMCP			RingPIP			RingTip			PinkyMCP			PinkyPIP			PinkyTip			BackHand1			BackHand2			BackHand3	
		X0	Y0	Z0	X1	Y1	Z1	X2	Y2	Z2	X3	Y3	Z3	X4	Y4	Z4	X5	Y5	Z5	X6	Y6	Z6	X7	Y7	Z7	X8	Y8	Z8	X9	Y9	Z9	X10	Y10	Z10	X11	Y11	Z11	X12	Y12	Z12	X13	Y13	Z13	X14	Y14	Z14	X15	Y15	Z15	X16	Y16	Z16	X17	Y17	Z17	X18	Y18	Z18	
68	0.566667	-126.711	45.7318	68.3973	-115.585	29.1135	43.5982	-109.619	16.0013	15.8296	-97.5695	5.44492	-4.75851	-156.237	7.44837	-0.872425	-143.307	-23.465	4.86507	-133.949	-15.8223	37.0135	-176.124	-5.03626	3.74007	-160.101	-35.3927	12.2972	-144.002	-23.2704	47.1048	-190.667	-11.4507	14.7096	-173.974	-39.7489	19.4944	-159.43	-30.2047	49.8089	-213.522	-3.10291	34.5382	-216.177	-15.031	8.66714	-216.155	-25.9219	-13.677	-197.194	34.1719	57.6285	-197.146	50.6137	86.983	-167.714	55.5791	59.6627	
69	0.575	-131.595	51.491	72.2818	-116.594	36.1569	45.2932	-103.207	25.182	17.2441	-88.2001	17.1971	2.30563	-144.371	7.92218	0.60564	-129.131	-19.8902	11.2157	-122.894	-8.48684	42.654	-163.725	-11.304	5.83083	-144.173	-35.9322	17.5011	-132.652	-16.7775	53.7868	-180.246	-20.5292	18.3247	-159.735	-43.326	24.2946	-145.15	-25.0042	53.1552	-203.515	-12.0472	33.5265	-201.524	-26.4486	10.1707	-200.278	-40.8187	-8.49893	-197.524	30.4301	60.2073	-199.178	47.0883	89.0822	-170.036	56.091	59.9155	
70	0.583333	-133.538	60.4667	71.2347	-119.281	43.9359	49.856	-100.25	35.6191	20.7004	-84.0394	31.7184	5.01399	-137.676	11.6394	2.02955	-116.187	-10.6931	8.36364	-114.08	2.58977	46.9391	-150.717	-6.19769	7.78614	-127.498	-29.5906	21.3436	-119.218	-8.86049	54.4535	-167.107	-22.4427	19.9665	-137.812	-37.2445	30.2388	-135.275	-14.6883	60.0915	-191.296	-20.5062	32.9993	-187.279	-37.4556	14.6409	-174.098	-51.2661	-8.54491	-195.502	22.5933	56.9993	-197.715	44.0522	84.7072	-173.382	56.2846	59.2372	
71	0.591667	-141.801	66.2202	67.621	-120.083	57.8085	51.516	-102.879	47.9791	22.9722	-82.7715	49.3392	7.73975	-134.475	13.7444	6.00839	-107.051	-0.334808	14.9435	-107.955	16.2991	47.8576	-141.562	-3.38356	8.76731	-110.261	-16.769	22.8073	-111.183	4.72864	59.5266	-148.391	-21.1839	19.9851	-123.362	-31.0382	30.0029	-124.694	-5.98881	62.588	-176.277	-23.1942	38.2344	-165.453	-39.8608	14.0724	-151.63	-52.4529	-7.27821	-190.624	15.6977	55.0432	-201.867	34.6206	81.9114	-177.185	55.7171	54.9653	
72	0.6	-150.655	73.971	70.9108	-127.043	66.8848	50.9529	-105.452	65.4618	23.1954	-88.9072	64.1148	7.99154	-128.844	22.3047	5.20019	-99.9665	12.546	14.2797	-101.12	29.4615	46.0752	-129.559	0.0299447	10.17	-98.6248	-4.95352	28.8589	-105.275	15.0103	61.1726	-134.908	-16.8244	22.1051	-105.294	-16.4944	34.5502	-115.072	7.59442	62.7308	-159.586	-20.9426	36.8326	-146.946	-37.8909	16.1708	-132.007	-50.2624	-3.84321	-187.733	10.2402	56.6727	-202.889	28.4932	82.3757	-183.689	50.196	56.3967	
73	0.608333	-162.535	74.3486	69.4604	-137.845	70.9589	47.0209	-114.151	73.2936	19.2086	-97.0222	81.288	7.79068	-127.349	32.4038	4.91147	-94.0194	31.4107	13.4413	-104.123	43.5904	48.1704	-122.675	11.3454	10.4991	-90.9138	10.8717	25.9521	-104.126	30.8708	62.6785	-124.069	-6.97876	22.7917	-94.4327	0.602538	37.0164	-111.323	18.6561	64.502	-143.995	-21.1236	34.7245	-127.708	-34.4709	17.4942	-109.254	-36.9502	-3.71151	-178.121	7.42687	53.4806	-197.619	13.4438	79.1142	-185.642	42.9431	53.1406	
74	0.616667	-172.347	69.9886	65.7448	-148.827	78.9193	43.1976	-125.632	81.0981	15.4364	-111.897	93.1535	3.14999	-125.851	36.1827	5.19621	-95.1698	41.3374	14.398	-107.028	58.5777	44.8143	-115.074	17.5141	10.2018	-86.9593	26.8566	28.3196	-102.759	45.714	59.4051	-115.452	1.78308	24.5611	-86.2807	14.0957	41.0787	-105.409	29.1164	63.1978	-130.915	-18.619	38.9947	-113.835	-22.4454	21.8762	-95.7764	-25.3862	0.634252	-171.252	0.797271	58.949	-195.749	10.1938	78.2062	-188.013	37.5785	51.8749	
75	0.625	-181.564	68.5544	60.1409	-159.413	77.3192	39.5844	-142.072	87.2319	12.8582	-128.276	98.8694	-1.89575	-126.777	37.3788	3.9879	-98.1797	51.5827	14.9103	-114.199	68.2044	41.086	-114.15	24.2078	10.0628	-86.9735	40.0103	28.4063	-112.664	54.4497	59.4	-106.072	7.78685	26.4283	-85.2066	29.1085	37.4664	-111.198	39.4891	65.6154	-121.419	-9.76857	40.7692	-101.709	-15.7057	23.4053	-86.3062	-13.9172	1.11784	-163.788	1.08202	52.1633	-191.214	3.80902	78.9132	-190.223	28.3267	52.1833	
76	0.633333	-188.804	62.5946	54.2857	-172.907	76.1141	34.1683	-153.459	82.9913	6.93787	-145.504	98.9481	-10.865	-133.303	43.6588	-1.55278	-104.396	62.6161	6.33834	-120.518	71.5688	36.7601	-112.342	30.0055	7.48912	-90.2041	51.093	26.1753	-116.373	62.841	53.7669	-105.917	17.4916	22.4934	-85.0565	39.8632	38.4917	-109.856	47.8601	61.2611	-112.857	-6.44049	38.6561	-94.6008	-6.56302	23.0442	-77.5432	-6.75083	-0.649925	-160.553	-0.800557	55.7929	-181.493	-5.70217	76.6625	-187.11	20.8143	46.7716	
77	0.641667	-194.549	52.8907	55.2542	-182.096	66.7695	29.1115	-168.357	79.4259	-0.870518	-160.238	90.6045	-18.0308	-135.683	39.6584	-3.92487	-110.901	63.6546	0.588373	-129.213	74.292	31.6388	-117.377	32.4746	2.92627	-97.7564	58.1046	16.9384	-122.802	63.2015	48.9016	-104.049	21.3939	19.3524	-89.0536	47.0034	32.6381	-115.944	53.4198	56.4059	-110.023	-1.01437	34.0674	-90.3875	0.3515	17.3297	-76.539	3.6165	-0.328087	-155.75	-6.0419	52.3416	-177.392	-7.96326	78.0936	-186.365	13.7465	46.1496	
78	0.65	-202.829	47.2788	51.2207	-192.013	57.4085	22.2749	-180.701	67.8066	-6.42755	-172.014	76.9732	-26.7962	-140.338	37.3015	-10.2711	-119.847	61.3969	-10.8761	-133.436	74.4286	19.9427	-120.995	28.0674	0.93172	-105.2	62.1597	12.6944	-131.013	65.8241	40.2278	-109.235	19.8012	13.7386	-91.8396	48.8994	21.9607	-115.549	57.4587	45.5343	-110.548	1.88031	34.505	-89.2011	3.49033	11.5576	-75.6308	4.93012	-6.35624	-155.517	-4.13369	52.8308	-173.208	-9.36257	76.2405	-188.475	11.4285	45.8278	
79	0.658333	-203.507	39.0361	48.8814	-200.125	49.1195	19.9736	-193.444	57.7741	-13.6935	-186.472	65.7132	-34.3774	-147.067	28.6863	-13.3201	-125.979	56.0238	-14.9598	-139.78	71.5573	10.4959	-124.945	25.4117	-5.72441	-112.109	57.296	-0.199703	-133.978	61.0679	33.5747	-110.388	19.5561	4.17387	-97.6476	46.7275	11.7333	-121.343	56.617	35.8612	-110.527	-0.209191	28.2541	-92.4076	1.01229	10.0802	-78.8128	4.38064	-11.0118	-152.792	-8.27796	52.4301	-172.127	-13.8719	74.0783	-188.891	2.95697	44.5629	
80	0.666667	-204.805	31.1687	48.081	-207.919	40.8583	19.4176	-199.517	43.5248	-14.7229	-195.324	51.8139	-36.6503	-151.194	20.0722	-20.8721	-133.41	47.4492	-23.1404	-150.471	64.781	2.53004	-130.942	18.89	-11.8184	-117.876	52.7523	-6.57166	-140.525	57.5763	24.1651	-118.122	13.2375	0.0518839	-106.421	41.3419	-1.74074	-129.734	51.8379	27.4178	-108.833	-5.1176	22.626	-98.4244	-0.234882	2.28625	-83.006	-0.695041	-18.2785	-149.441	-14.9152	46.2784	-171.218	-14.9534	74.737	-190.105	-2.96222	45.7373	
81	0.675	-211.92	25.9086	46.6201	-210.712	31.3776	16.5567	-208.641	32.8949	-17.2958	-205.696	39.668	-39.4776	-160.902	10.4376	-22.2385	-141.504	34.4316	-30.8505	-154.796	54.3853	-1.51747	-140.334	11.5508	-18.5945	-128.561	45.5009	-17.7186	-144.972	50.1547	19.825	-121.765	5.75624	-3.77963	-109.908	34.286	-8.13001	-135.016	46.8778	21.1427	-116.493	-8.23976	15.36	-103.309	-8.17937	-4.81804	-87.2381	-9.80792	-25.7429	-151.634	-18.3136	47.7287	-165.951	-19.4499	76.0194	-190.616	-8.46261	45.7889	
82	0.683333	-213.713	19.498	46.9865	-213.914	24.788	20.3892	-213.475	23.5952	-17.777	-211.731	25.7114	-40.8577	-169.248	-0.593989	-25.3769	-152.131	24.3211	-37.5894	-160.109	45.0845	-8.36004	-147.967	-0.151772	-18.9948	-135.528	36.9922	-21.5981	-152.148	42.652	14.1299	-128.07	-2.13669	-9.26034	-116.851	26.5408	-13.9529	-139.724	40.9845	12.4621	-121.635	-13.6882	17.3051	-107.85	-16.7431	-6.85905	-96.6412	-18.0408	-28.4099	-157.066	-22.7116	43.072	-170.605	-23.0957	75.3472	-193.762	-15.6734	49.4396	
83	0.691667	-215.585	16.6944	51.7114	-221.727	18.6253	19.2679	-220.115	14.6447	-14.2799	-221.472	15.8711	-40.4818	-179.192	-10.6378	-23.5839	-160.979	12.4279	-39.5792	-168.937	36.6444	-14.2087	-152.3	-9.7231	-23.0695	-140.956	23.7374	-26.5312	-155.828	34.7293	7.44154	-136.58	-12.1139	-10.729	-125.47	16.3904	-20.6597	-142.471	33.5702	9.57771	-125.343	-21.7406	14.867	-113.555	-25.6199	-8.49076	-108.692	-29.1025	-35.1952	-157.602	-26.9908	45.7183	-168.221	-24.857	78.5149	-197.355	-19.5232	50.1715	
84	0.7	-219.298	11.4944	49.8294	-225.438	12.0532	19.527	-231.035	7.25002	-14.193	-230.121	7.90783	-37.2697	-188.004	-21.2465	-21.2439	-169.214	2.54694	-39.4911	-176.577	27.5536	-19.1757	-164.738	-18.6826	-24.4848	-149.48	10.9766	-32.4839	-164.416	27.7563	2.90922	-142.787	-22.2466	-13.0611	-136.341	8.23527	-24.5261	-150.401	24.6509	4.8025	-135.44	-31.1111	10.5516	-122.867	-36.2966	-11.9348	-121.166	-41.1996	-36.838	-161.649	-34.2146	47.1543	-172.215	-25.7189	81.3384	-202.088	-22.6848	53.2387	
85	0.708333	-221.33	12.4637	53.5178	-225.714	8.85363	22.9702	-232.112	3.31436	-8.76718	-236.968	0.427038	-34.4718	-193.447	-29.0595	-18.8287	-178.79	-12.6154	-39.2742	-180.815	18.2713	-18.9714	-174.128	-29.6885	-20.5062	-160.014	2.94179	-33.2377	-168.08	20.0193	-0.755485	-149.686	-32.9721	-12.2136	-145.009	-5.04871	-27.9063	-152.465	15.6158	3.51236	-139.274	-42.0872	10.9662	-134.592	-46.3792	-12.108	-129.349	-54.6338	-40.1021	-166.035	-36.2037	51.7057	-175.338	-28.9636	80.0741	-206.003	-22.7392	59.7695	
86	0.716667	-219.886	13.0313	56.2387	-229.218	9.1232	24.8868	-239.739	3.54768	-5.44273	-242.551	-4.573	-33.5241	-200.938	-34.6654	-13.1005	-188.098	-17.9846	-40.2633	-186.548	13.0719	-18.4311	-178.775	-38.1694	-15.3153	-166.104	-10.6928	-34.4106	-170.917	13.5264	2.18027	-160.451	-40.4514	-10.3976	-149.312	-14.0573	-26.6451	-155.064	7.19601	-1.73345	-150.066	-46.7506	13.7626	-147.356	-55.5908	-14.2419	-141.192	-63.9539	-36.3649	-170.324	-37.5177	55.2807	-178.637	-30.4725	82.3639	-209.921	-23.9429	62.2272	
87	0.725	-220.005	16.6386	56.367	-231.356	12.0169	25.6221	-237.323	1.3948	-4.07275	-245.888	-2.26185	-29.5186	-207.99	-38.6987	-12.0374	-192.913	-25.873	-36.8161	-188.223	7.25193	-19.0425	-189.002	-42.6794	-16.0344	-172.957	-16.8387	-34.8479	-172.239	7.18817	-3.94313	-165.51	-49.1174	-6.97478	-156.652	-26.0521	-27.458	-159.417	0.271514	-0.784847	-157.099	-52.6081	16.9412	-154.284	-66.1393	-10.4489	-153.112	-73.0514	-33.2147	-175.516	-41.8248	57.6463	-178.704	-28.1347	88.8145	-211.008	-22.0063	65.2956	
88	0.733333	-217.581	18.4507	55.9161	-227.75	14.5143	28.2872	-241.309	2.87997	-5.19126	-241.928	-5.33271	-29.103	-212.799	-38.3683	-5.46262	-197.301	-26.6668	-35.2943	-186.842	1.16163	-18.9018	-190.81	-47.4453	-13.3845	-173.004	-22.6119	-31.5226	-172.43	2.86927	-4.55161	-170.618	-53.1055	-1.97749	-160.878	-34.2813	-25.1433	-158.319	-6.44383	-1.6523	-163.501	-57.3201	20.8771	-164.088	-69.7339	-3.55852	-162.179	-80.5891	-27.0391	-180.757	-40.5239	61.1771	-179.536	-28.8565	89.7163	-212.341	-19.3708	63.6445	
89	0.741667	-212.097	21.447	56.6203	-223.911	17.111	29.3152	-234.784	5.19802	-2.28019	-239.904	0.901207	-24.6018	-215.439	-37.1228	-3.71103	-199.5	-28.6407	-31.7449	-190.213	3.1123	-16.8507	-195.708	-48.2827	-10.5133	-177.775	-25.3713	-31.3381	-170.325	-0.188395	-2.11696	-177.797	-54.4965	-2.06451	-161.687	-37.821	-24.2136	-160.223	-9.39089	-1.44795	-164.709	-60.5244	26.2363	-171.183	-74.4689	-0.630501	-175.198	-82.1558	-27.3938	-179.263	-41.4625	62.6203	-178.189	-28.1745	92.251	-212.119	-16.3766	66.9054	
